<svg version="1.1" xmlns="http://www.w3.org/2000/svg" viewBox="0 0 511.994 511.994">
  <path transform="scale(1.334) translate(-64, -200)" d="M426.66,298.667h-64c-11.792,0-21.333,9.552-21.333,21.333s9.542,21.333,21.333,21.333h9.668l-96.46,89.573
    l-71.083-53.302c-8.104-6.094-19.479-5.625-27.063,1.208l-106.667,96c-8.75,7.875-9.458,21.365-1.583,30.125
    c7.896,8.74,21.354,9.469,30.125,1.583l93.625-84.26l71.312,53.469c8.188,6.198,19.688,5.604,27.313-1.427l113.479-105.374V384
    c0,11.781,9.542,21.333,21.333,21.333c11.792,0,21.333-9.552,21.333-21.333v-64C447.994,308.219,438.452,298.667,426.66,298.667z
    "/>
</svg>
